<?xml version="1.0" encoding="utf-8"?>
<!-- Generator: Adobe Illustrator 22.0.1, SVG Export Plug-In . SVG Version: 6.00 Build 0)  -->
<svg version="1.1" id="Layer_1" xmlns="http://www.w3.org/2000/svg" xmlns:xlink="http://www.w3.org/1999/xlink" x="0px" y="0px"
	 viewBox="0 0 64 64" style="enable-background:new 0 0 64 64;" xml:space="preserve">
<style type="text/css">
	.st0{fill:#222A34;}
	.st1{fill:#EA2121;}
</style>
<g>
	<g>
		<path class="st0" d="M56.3,10c0-2.1-1.7-3.8-3.8-3.8c-0.9,0-1.8,0.3-2.4,0.9l0,0c-0.2,0.2-12.2,12.2-12.2,12.2L32.1,4.1L32,3.8
			c-0.5-1.1-1.2-2.1-2.2-2.8c-1-0.7-2.2-1.1-3.5-1.1c-1.3,0-2.5,0.4-3.5,1.1c-1.1,0.7-1.9,1.8-2.3,3L0.4,57
			c-0.2,0.4-0.3,0.8-0.4,1.3c0,0,0,0.1,0,0.1c0,0,0,0.1,0,0.1c0,0.1,0,0.1,0,0.2c0,0,0,0,0,0.1c0,0.6,0.2,1.3,0.5,1.8c0,0,0,0,0,0
			c0.1,0.1,0.1,0.2,0.2,0.3c0,0,0,0,0,0.1c0,0.1,0.1,0.1,0.1,0.2c0.7,0.8,1.7,1.4,2.9,1.4c0,0,0.1,0,0.1,0c0,0,0,0,0,0c0,0,0,0,0,0
			c0.1,0,0.1,0,0.2,0c0,0,0.1,0,0.1,0c0,0,0.1,0,0.1,0c1-0.1,2-0.8,2.7-1.5l28-28l9.7,25.6l0.5,1.4c0.5,1.5,2,2.5,3.5,2.5
			c0,0,0.1,0,0.1,0c0,0,0.1,0,0.1,0c0,0,0,0,0,0c1.2,0,2.2-0.6,2.9-1.5c0,0,0.1-0.1,0.1-0.1c0,0,0.1-0.1,0.1-0.1
			c0.1-0.2,0.2-0.4,0.3-0.6c0,0,0,0,0,0c0.2-0.5,0.3-1,0.3-1.5c0,0,0,0,0,0c0,0,0,0,0,0c0,0,0-0.1,0-0.1c0-0.1,0-0.1,0-0.2
			c0-0.5-0.2-0.9-0.4-1.3L40.8,27.1l14.4-14.4C55.9,12,56.3,11.1,56.3,10z M13.7,43.4l12.5-33.1l0,0l5.6,14.9L13.7,43.4z"/>
		<circle class="st1" cx="60.2" cy="3.8" r="3.8"/>
	</g>
</g>
</svg>
